# xmcd CD database file
#
# Track frame offsets:
#	150
#	19532
#	40048
#	58177
#	72313
#	88545
#	110181
#	127672
#
# Disc length: 1911 seconds
#
# Revision: 2
# Processed by: cddbd v1.5.2PL0 Copyright (c) Steve Scherf et al.
# Submitted via: CDex 1.70beta2
#
DISCID=63077508
DTITLE=Tom Armstrong - Cowboy Word
DYEAR=2005
DGENRE=Country
TTITLE0=Memories In My Mind
TTITLE1=Don't Give Her Any Reason
TTITLE2=When You Go
TTITLE3=Cowboy Word
TTITLE4=Since We've Benn Through
TTITLE5=Almost Home
TTITLE6=The Impossible
TTITLE7=In A Different Light
EXTD=YEAR: 2005
EXTT0=
EXTT1=
EXTT2=
EXTT3=
EXTT4=
EXTT5=
EXTT6=
EXTT7=
PLAYORDER=
